# xmcd
#
# Track frame offsets: 
#        150
#        23356
#        51287
#        72920
#        87489
#        102503
#        118293
#        131161
#        154126
#        263424
#
# Disc length: 3696 seconds
#
# Revision: 2
# Processed by: cddbd v1.5.2PL0 Copyright (c) Steve Scherf et al.
# Submitted via: ExactAudioCopy v1.0b3
#
DISCID=870e6e0a
DTITLE=Peter Green - Supernatural
DYEAR=2007
DGENRE=Rock
TTITLE0=Peter Green - Fleetwood Mac - The green Manalishi
TTITLE1=Peter Green - Fleetwood Mac - Black magic woman
TTITLE2=Peter Green - Fleetwood Mac - Jumping at shadows
TTITLE3=Peter Green - Peter Green Splinter Group - The supernatural
TTITLE4=Peter Green - Peter Green Splinter Group - Albatross
TTITLE5=Peter Green - Fleetwood Mac - World in harmony
TTITLE6=Peter Green - Fleetwood Mac - Oh, well!
TTITLE7=Peter Green - Fleetwood Mac - Sandy Mary
TTITLE8=Peter Green - Fleetwood Mac - Rattlesnake shake
TTITLE9=Peter Green - Peter Green Splinter Group - Man of the world
EXTD=
EXTT0=
EXTT1=
EXTT2=
EXTT3=
EXTT4=
EXTT5=
EXTT6=
EXTT7=
EXTT8=
EXTT9=
PLAYORDER=
